<svg width="20" height="20" viewBox="0 0 20 20" fill="none" xmlns="http://www.w3.org/2000/svg">
<path d="M2.49984 2.5L17.4998 17.5M8.81983 8.82248C8.5071 9.13499 8.33132 9.55894 8.33116 10.0011C8.33101 10.4432 8.50649 10.8672 8.819 11.18C9.13151 11.4927 9.55546 11.6685 9.99758 11.6687C10.4397 11.6688 10.8638 11.4933 11.1765 11.1808M7.80234 4.47083C8.51685 4.26643 9.25667 4.16403 9.99984 4.16667C13.3332 4.16667 16.1107 6.11083 18.3332 10C17.6848 11.1342 16.9898 12.1033 16.2473 12.9067M14.464 14.4575C13.1048 15.3742 11.6182 15.8333 9.99984 15.8333C6.6665 15.8333 3.889 13.8892 1.6665 10C2.80734 8.00416 4.094 6.52083 5.5265 5.54917" stroke="#718096" stroke-width="1.5" stroke-linecap="round" stroke-linejoin="round"/>
</svg>
