<svg width="24" height="24" viewBox="0 0 24 24" fill="none" xmlns="http://www.w3.org/2000/svg">
<path d="M12.0001 13.8888C12.5894 13.8888 13.1547 13.6547 13.5714 13.2379C13.9881 12.8212 14.2223 12.2559 14.2223 11.6666C14.2223 11.0772 13.9881 10.512 13.5714 10.0952C13.1547 9.67846 12.5894 9.44434 12.0001 9.44434C11.4107 9.44434 10.8455 9.67846 10.4287 10.0952C10.012 10.512 9.77783 11.0772 9.77783 11.6666C9.77783 12.2559 10.012 12.8212 10.4287 13.2379C10.8455 13.6547 11.4107 13.8888 12.0001 13.8888Z" stroke="#1A202C" stroke-width="1.5" stroke-linecap="round" stroke-linejoin="round"/>
<path d="M22 11.6667C19.9011 14.99 16.1311 18.3333 12 18.3333C7.86889 18.3333 4.09889 14.99 2 11.6667C4.55444 8.50889 7.54667 5 12 5C16.4533 5 19.4456 8.50889 22 11.6667Z" stroke="#1A202C" stroke-width="1.5" stroke-linecap="round" stroke-linejoin="round"/>
</svg>
