<svg width="20" height="20" viewBox="0 0 20 20" fill="none" xmlns="http://www.w3.org/2000/svg">
<g id="Iconly/Bold/Category">
<g id="Category">
<path id="Category_2" fill-rule="evenodd" clip-rule="evenodd" d="M3.78329 1.66666H6.59996C7.77496 1.66666 8.71663 2.62499 8.71663 3.80082V6.64166C8.71663 7.82499 7.77496 8.77499 6.59996 8.77499H3.78329C2.61663 8.77499 1.66663 7.82499 1.66663 6.64166V3.80082C1.66663 2.62499 2.61663 1.66666 3.78329 1.66666ZM3.78329 11.2247H6.59996C7.77496 11.2247 8.71663 12.1756 8.71663 13.3589V16.1997C8.71663 17.3747 7.77496 18.3331 6.59996 18.3331H3.78329C2.61663 18.3331 1.66663 17.3747 1.66663 16.1997V13.3589C1.66663 12.1756 2.61663 11.2247 3.78329 11.2247ZM16.2167 1.66666H13.4001C12.2251 1.66666 11.2834 2.62499 11.2834 3.80082V6.64166C11.2834 7.82499 12.2251 8.77499 13.4001 8.77499H16.2167C17.3834 8.77499 18.3334 7.82499 18.3334 6.64166V3.80082C18.3334 2.62499 17.3834 1.66666 16.2167 1.66666ZM13.4001 11.2247H16.2167C17.3834 11.2247 18.3334 12.1756 18.3334 13.3589V16.1997C18.3334 17.3747 17.3834 18.3331 16.2167 18.3331H13.4001C12.2251 18.3331 11.2834 17.3747 11.2834 16.1997V13.3589C11.2834 12.1756 12.2251 11.2247 13.4001 11.2247Z" fill="#1A202C"/>
</g>
</g>
</svg>
